<svg width="300" height="300" viewBox="0 0 300 300" fill="none" xmlns="http://www.w3.org/2000/svg">
<g clip-path="url(#clip0_50_2)">
<path d="M149.871 294.053L67.9648 271.315L49.4637 63.8083H250.535L232.015 271.281L149.871 294.053Z" stroke="white" stroke-width="10"/>
<path d="M220.153 261.396L236.657 76.5015H150V280.845L220.153 261.396Z" fill="#D3D3D3"/>
<path d="M88.2293 156.761L90.6077 183.302H150V156.761H88.2293ZM83.4492 103.043L85.8617 129.583H150V103.043H83.4492ZM150 225.69L149.884 225.721L120.326 217.739L118.436 196.572H91.7935L95.5115 238.245L149.878 253.336L150 253.303V225.69Z" fill="#EBEBEB"/>
<path d="M93.8926 0H126.037V13.4427H107.335V26.8853H126.038V40.3271H93.8926V0ZM132.466 0H164.611V11.6892H145.909V14.0269H164.611V40.9122H132.467V28.6371H151.169V26.2994H132.465V0H132.466ZM171.041 0H203.186V11.6892H184.483V14.0269H203.186V40.9122H171.041V28.6371H189.743V26.2994H171.042V0H171.041Z" fill="#F2EDED"/>
<path d="M211.601 156.761L216.392 103.043H149.909V129.583H187.306L184.891 156.761H149.909V183.302H182.59L179.509 217.723L149.908 225.712V253.324L204.317 238.245L204.716 233.761L210.954 163.888L211.601 156.761Z" fill="white"/>
</g>
<defs>
<clipPath id="clip0_50_2">
<rect width="300" height="300" fill="white"/>
</clipPath>
</defs>
</svg>
