<svg width="330" height="330" viewBox="0 0 330 330" fill="none" xmlns="http://www.w3.org/2000/svg">
<path d="M46.7285 30.9375L67.998 271.541L164.936 299.062L261.486 271.541L283.175 30.9375H46.7285ZM243.601 256.717L164.936 279.146L85.916 256.717L67.6436 50.0801H262.228L243.601 256.717ZM90.5566 80.2441L91.1045 88.0752L98.4199 169.77H164.968V169.737H201.352L197.678 207.926L164.678 216.853V216.917H164.42L131.42 207.99L129.325 184.4H99.999L103.641 231.032L164.42 247.79H164.968V247.661L225.457 231L226.005 225.747L232.837 147.694L233.868 139.863H164.678V139.928H125.651L123.009 109.57H236.479L237.026 103.286L238.573 88.0752L239.121 80.2441H164.678H90.5566Z" fill="#F2EDED"/>
</svg>
