<svg width="300" height="300" viewBox="0 0 300 300" fill="none" xmlns="http://www.w3.org/2000/svg">
<path d="M148.514 55.5864C134.652 65.3358 118.941 76.3866 110.524 94.6689C95.9024 126.563 140.443 161.355 142.346 162.821C142.789 163.162 143.318 163.331 143.846 163.331C144.407 163.331 144.968 163.139 145.425 162.758C146.309 162.018 146.56 160.762 146.029 159.739C145.867 159.428 129.88 128.374 130.474 106.094C130.685 98.3357 141.544 89.5335 153.04 80.2138C163.569 71.6781 175.504 62.0034 182.488 50.6861C197.818 25.7743 180.779 1.27867 180.605 1.03474C179.929 0.0845779 178.679 -0.260667 177.611 0.208512C176.544 0.678674 175.953 1.83342 176.197 2.97342C176.231 3.13473 179.545 19.3337 170.325 36.0225C166.525 42.9185 158.179 48.7897 148.514 55.5864Z" fill="#F2EDED"/>
<path d="M206.916 66.5722C207.894 65.8355 208.181 64.4919 207.589 63.4198C206.997 62.3476 205.707 61.8745 204.562 62.3093C202.207 63.2044 146.896 84.524 146.896 110.286C146.896 128.043 154.482 137.424 160.021 144.275C162.193 146.961 164.069 149.281 164.687 151.262C166.427 156.971 162.305 167.289 160.572 170.783C160.072 171.788 160.317 173.005 161.167 173.739C161.626 174.135 162.199 174.336 162.774 174.336C163.263 174.336 163.753 174.19 164.177 173.895C165.129 173.233 187.42 157.473 183.422 138.484C181.932 131.268 178.386 125.994 175.256 121.34C170.408 114.131 166.906 108.923 172.218 99.3046C178.445 88.0876 206.632 66.7857 206.916 66.5722Z" fill="#F2EDED"/>
<path d="M62.9411 174.746C61.9929 177.584 62.4405 180.402 64.2346 182.893C70.2306 191.216 91.4686 195.801 124.04 195.801C124.042 195.801 124.043 195.801 124.044 195.801C128.457 195.801 133.116 195.714 137.889 195.543C189.964 193.678 209.279 177.456 210.075 176.766C210.944 176.015 211.176 174.763 210.636 173.75C210.096 172.737 208.931 172.229 207.819 172.535C189.48 177.542 155.233 179.32 131.479 179.32C104.899 179.32 91.3623 177.406 88.0486 175.992C89.7492 173.657 100.237 169.488 113.234 166.931C114.476 166.687 115.33 165.54 115.207 164.28C115.084 163.02 114.026 162.059 112.76 162.059C105.141 162.06 66.9345 162.672 62.9411 174.746Z" fill="#F2EDED"/>
<path d="M237.195 158.038C226.454 158.038 216.269 163.421 215.84 163.65C214.846 164.182 214.343 165.321 214.615 166.415C214.889 167.508 215.871 168.276 216.998 168.277C217.227 168.278 239.909 168.463 241.964 181.423C243.784 192.603 220.502 210.719 211.377 216.757C210.392 217.409 210.009 218.67 210.466 219.759C210.855 220.686 211.759 221.266 212.732 221.266C212.903 221.266 213.075 221.249 213.246 221.211C215.412 220.749 266.218 209.554 260.846 179.972C257.569 161.843 246.175 158.038 237.195 158.038Z" fill="#F2EDED"/>
<path d="M202.352 213.137C202.529 212.189 202.134 211.225 201.345 210.672L189.163 202.139C188.569 201.723 187.819 201.592 187.121 201.777C186.995 201.811 174.255 205.159 155.759 207.213C148.419 208.036 140.197 208.471 131.981 208.471C113.49 208.471 101.399 206.298 99.6388 204.705C99.4057 204.257 99.4795 204.053 99.5208 203.94C99.8405 203.05 101.555 201.993 102.66 201.575C103.881 201.123 104.539 199.797 104.159 198.552C103.781 197.307 102.497 196.573 101.23 196.878C89.01 199.827 83.0346 203.951 83.4694 209.135C84.2415 218.325 105.53 223.042 123.527 224.29C126.114 224.467 128.914 224.558 131.844 224.558C131.846 224.558 131.847 224.558 131.849 224.558C161.775 224.558 200.139 215.168 200.523 215.073C201.459 214.842 202.174 214.085 202.352 213.137Z" fill="#F2EDED"/>
<path d="M110.509 232.863C111.432 232.262 111.841 231.122 111.513 230.072C111.187 229.021 110.204 228.332 109.101 228.345C107.463 228.389 93.0757 229.038 92.0685 238.198C91.7636 240.936 92.5475 243.436 94.3996 245.63C99.5655 251.752 113.509 255.391 137.021 256.755C139.803 256.921 142.628 257.005 145.42 257.005C175.312 257.005 195.443 247.646 196.286 247.247C197.104 246.861 197.643 246.058 197.691 245.155C197.739 244.253 197.288 243.397 196.517 242.925L181.122 233.527C180.588 233.201 179.949 233.093 179.339 233.218C179.241 233.239 169.466 235.266 154.714 237.27C151.923 237.648 148.427 237.841 144.325 237.841C129.589 237.841 113.198 235.433 110.055 233.858C110.009 233.561 110.067 233.188 110.509 232.863Z" fill="#F2EDED"/>
<path d="M131.489 285.263C199.958 285.205 236.706 273.029 243.785 265.366C246.291 262.655 246.562 260.088 246.348 258.412C245.822 254.287 242.066 251.762 241.639 251.488C240.611 250.827 239.232 251 238.43 251.924C237.631 252.85 237.612 254.2 238.415 255.124C238.847 255.68 239.096 256.609 237.833 257.873C235.004 260.516 206.459 268.539 158.934 270.949C152.423 271.289 145.595 271.46 138.639 271.461C96.0863 271.461 64.9445 265.633 60.8566 262.235C62.4333 259.972 73.4477 256.355 85.1625 254.31C86.4824 254.079 87.3746 252.835 87.17 251.511C86.9654 250.187 85.7447 249.276 84.411 249.45C84.0805 249.494 82.9602 249.563 81.6608 249.641C62.332 250.822 39.9954 253.453 38.8298 263.411C38.4757 266.446 39.3777 269.2 41.5111 271.598C46.7311 277.464 61.736 285.262 131.486 285.262C131.488 285.263 131.488 285.263 131.489 285.263Z" fill="#F2EDED"/>
<path d="M257.234 267.525C256.266 267.078 255.123 267.304 254.4 268.083C254.299 268.191 244.005 278.956 213.054 285.276C201.205 287.651 178.962 288.855 146.945 288.855C114.868 288.855 84.3457 287.593 84.0407 287.58C82.766 287.518 81.6752 288.445 81.5021 289.7C81.328 290.955 82.1365 292.136 83.368 292.429C83.6857 292.505 115.673 299.999 159.41 299.999C180.388 299.999 200.8 298.294 220.083 294.932C256.037 288.629 258.554 270.802 258.643 270.046C258.768 268.99 258.2 267.973 257.234 267.525Z" fill="#F2EDED"/>
</svg>
