<svg width="336" height="337" viewBox="0 0 336 337" fill="none" xmlns="http://www.w3.org/2000/svg">
<g clip-path="url(#clip0_50_45)">
<path d="M20.027 154.486H40.446C47.796 154.486 56.273 160.758 56.273 168.486C56.273 176.214 47.803 182.486 40.446 182.486H20.027C12.677 182.486 7 176.221 7 168.486C7 160.751 12.677 154.486 20.027 154.486ZM301.147 147.486C291.34 147.486 283.5 156.887 283.5 168.486C283.5 180.085 291.41 189.486 301.147 189.486H329.28L336 182.486H301C294.714 182.157 291.977 178.02 290.5 171.986H329.28L336 164.986H290.5C291.991 158.959 294.644 154.521 301 154.486H329.28L336 147.486H301.147ZM238 147.486V185.468C238 186.504 238.665 187.512 239.407 188.282C240.149 189.052 241.15 189.486 242.242 189.486L269.78 189.5L276.78 182.5L245 182.486V147.5L238 147.486ZM194.894 147.486C183.757 147.486 174.937 156.908 174.937 168.507C174.937 180.106 183.757 189.486 194.894 189.486L220.437 189.402L228.48 182.486H194.747C187.397 182.486 181.867 176.228 181.867 168.493C181.867 160.758 187.397 154.486 194.747 154.486L220.57 154.598L228.48 147.486H194.894ZM147 147.486C145.194 147.486 143.346 148.991 142.31 150.867L122.5 189.486H129.5L147 154.486L158.837 175.486H140.28L146.867 182.346L162.134 182.304L166.74 189.479L174.307 189.416L151.368 150.867C149.758 148.284 148.75 147.486 147 147.486ZM70 147.486V189.486H77V154.486H98C101.605 154.486 105 157.734 105 161.486C105 165.238 101.605 168.486 98 168.486H80.5L104.867 189.486H115.5L98 175.486L100.359 175.423C105.539 175.43 112 169.333 112 161.486C112 153.639 107.191 147.584 101.129 147.486H70ZM20.174 147.486C9.037 147.486 0 156.894 0 168.486C0 180.078 9.037 189.486 20.174 189.486H40.32C51.457 189.486 63 180.085 63 168.486C63 156.887 51.457 147.486 40.32 147.486H20.174Z" fill="white"/>
</g>
<defs>
<clipPath id="clip0_50_45">
<rect width="336" height="336" fill="white" transform="translate(0 0.5)"/>
</clipPath>
</defs>
</svg>
